<svg xmlns="http://www.w3.org/2000/svg" xmlns:xlink="http://www.w3.org/1999/xlink" width="603" height="70" viewBox="0 0 603 70">
  <defs>
    <clipPath id="clip-path">
      <rect id="Rectangle_5919" data-name="Rectangle 5919" width="603" height="70" fill="none"/>
    </clipPath>
  </defs>
  <g id="andman_logo_1" data-name="andman logo 1" transform="translate(0 0)">
    <g id="Group_10237" data-name="Group 10237" transform="translate(0 0)" clip-path="url(#clip-path)">
      <path id="Path_6347" data-name="Path 6347" d="M165.007,47.764V29.132c0-11.228,7.484-19.1,18.241-19.1,10.678,0,18.163,7.719,18.4,18.634h-7.638c-.156-7.406-4.756-11.228-10.758-11.228-6.781,0-10.6,4.134-10.6,13.957V48c0,7.563,4.754,11.384,10.6,11.384,6,0,10.758-3.9,10.758-11.384V45.972h-10.68V39.189h18.317v8.575c0,11.228-7.562,19.024-18.4,19.024-10.758,0-18.241-7.8-18.241-19.024" transform="translate(-11.931 -0.724)" fill="#062149"/>
      <path id="Path_6348" data-name="Path 6348" d="M213.312,50.236V39.866c0-10.447,6-17.23,16.525-17.23,10.29,0,16.449,6.783,16.449,17.23v10.37c0,10.757-6.159,17.464-16.449,17.464-10.522,0-16.525-6.706-16.525-17.464m16.525,10.835c5.381,0,9.2-3.429,9.2-9.9V39.008c0-6.314-3.743-9.745-9.2-9.745-5.611,0-9.276,3.431-9.276,9.745V51.17c0,6.472,3.665,9.9,9.276,9.9" transform="translate(-15.424 -1.634)" fill="#062149"/>
      <path id="Path_6349" data-name="Path 6349" d="M273.433,40.826c6.313-3.119,11.926-6.236,11.926-13.33,0-6.395-4.443-10.136-10.524-10.136-7.328,0-10.524,4.834-10.524,11.07h-7.484c0-11.07,7.484-18.4,17.929-18.4,10.68,0,18.163,7.094,18.163,17.386,0,11.7-9.119,15.749-16.993,19.57C270,49.871,264.7,52.676,264.468,58.6h27.516v7.407H256.828v-5.77c0-11.616,8.809-15.513,16.6-19.412" transform="translate(-18.571 -0.724)" fill="#062149"/>
      <path id="Path_6350" data-name="Path 6350" d="M316.9,11.123h11.771l15.9,54.964H333.582L330.7,55.25h-15.98l-3.04,10.837H300.764Zm11.538,34.85-5.612-21.518-5.845,21.518Z" transform="translate(-21.748 -0.803)" fill="#062149"/>
      <path id="Path_6351" data-name="Path 6351" d="M353.693,11.123h10.134l16.134,31.965V11.123h10.834V66.088H380.662L364.448,34.28V66.088H353.693Z" transform="translate(-25.575 -0.803)" fill="#062149"/>
      <path id="Path_6352" data-name="Path 6352" d="M404.685,11.124h18.084c10.912,0,18.474,6.7,18.474,20.115v14.5c0,13.255-7.562,20.349-18.474,20.349H404.685Zm16.839,44.751c5.145,0,9.041-2.026,9.041-12.787V32.409c0-5.926-1.559-10.993-9.041-10.993h-6.081V55.875Z" transform="translate(-29.262 -0.803)" fill="#062149"/>
      <path id="Path_6353" data-name="Path 6353" d="M464.84,11.123h11.771l15.9,54.964H481.521L478.637,55.25h-15.98l-3.04,10.837H448.7Zm11.536,34.85-5.611-21.518-5.847,21.518Z" transform="translate(-32.445 -0.803)" fill="#062149"/>
      <path id="Path_6354" data-name="Path 6354" d="M501.631,11.123h10.68l12.316,32.043,12.238-32.043h10.679V66.088H536.787V34.357L528.211,55.8h-7.327l-8.5-21.283V66.088H501.631Z" transform="translate(-36.272 -0.803)" fill="#062149"/>
      <path id="Path_6355" data-name="Path 6355" d="M573.212,11.123h11.77l15.9,54.964H589.893L587.009,55.25H571.028l-3.038,10.837H557.075Zm11.536,34.85-5.613-21.518-5.847,21.518Z" transform="translate(-40.281 -0.803)" fill="#062149"/>
      <path id="Path_6356" data-name="Path 6356" d="M610,11.123h10.134l16.136,31.965V11.123h10.836V66.088H636.974L620.759,34.28V66.088H610Z" transform="translate(-44.108 -0.803)" fill="#062149"/>
      <path id="Path_6357" data-name="Path 6357" d="M62.806,59.99C73.343,59.99,73.843,70,84.381,70s10.538-10.01,21.074-10.01c10.066,0,10.54,9.112,19.746,9.93a63.459,63.459,0,0,0,.41-7.1A62.806,62.806,0,1,0,0,62.815a63.457,63.457,0,0,0,.41,7.1c9.205-.817,9.68-9.93,19.746-9.93C30.693,59.99,30.693,70,41.23,70S52.268,59.99,62.806,59.99" transform="translate(0 0)" fill="#ffbe1d"/>
    </g>
  </g>
</svg>
